HIERARCHY
ROOT Hips
{
	OFFSET 0.000000 0.000000 0.000000
	CHANNELS 6 Xposition Yposition Zposition Zrotation Yrotation Xrotation 
	JOINT LHipJoint
	{
		OFFSET 0.000000 0.000000 0.000000
		CHANNELS 3 Zrotation Yrotation Xrotation
		JOINT LeftUpLeg
		{
			OFFSET 1.363060 -1.794630 0.839290
			CHANNELS 3 Zrotation Yrotation Xrotation
			JOINT LeftLeg
			{
				OFFSET 2.448110 -6.726130 0.000000
				CHANNELS 3 Zrotation Yrotation Xrotation
				JOINT LeftFoot
				{
					OFFSET 2.562200 -7.039590 0.000000
					CHANNELS 3 Zrotation Yrotation Xrotation
					JOINT LeftToeBase
					{
						OFFSET 0.157640 -0.433110 2.322550
						CHANNELS 3 Zrotation Yrotation Xrotation
						End Site
						{
							OFFSET 0.000000 0.000000 0.000000
						}
					}
				}
			}
		}
	}
	JOINT RHipJoint
	{
		OFFSET 0.000000 0.000000 0.000000
		CHANNELS 3 Zrotation Yrotation Xrotation
		JOINT RightUpLeg
		{
			OFFSET -1.305520 -1.794630 0.839290
			CHANNELS 3 Zrotation Yrotation Xrotation
			JOINT RightLeg
			{
				OFFSET -2.542530 -6.985550 0.000000
				CHANNELS 3 Zrotation Yrotation Xrotation
				JOINT RightFoot
				{
					OFFSET -2.568260 -7.056230 0.000000
					CHANNELS 3 Zrotation Yrotation Xrotation
					JOINT RightToeBase
					{
						OFFSET -0.164730 -0.452590 2.363150
						CHANNELS 3 Zrotation Yrotation Xrotation
						End Site
						{
							OFFSET 0.000000 0.000000 0.000000
						}
					}
				}
			}
		}
	}
}
MOTION
Frames: 22
Frame Time: 0.008333
1.141722 16.834109 -0.560844 -136.964403 89.539969 -125.243696 -11.425894 4.130414 0.763473 -4.747134 2.089027 5.741950 -1.335032 1.113066 18.727291 0.067716 -1.703105 2.533296 -0.170400 -0.000000 -77.228300 7.856698 -0.971437 3.770027 10.539392 5.640361 -33.363239 2.998321 0.444788 6.051571 -0.299704 -3.420881 8.345799 -1.904100 -0.000001 -28.716000
1.313296 16.862756 -0.540361 -124.619998 89.235403 -112.860344 -11.622824 4.149424 0.789945 -4.106065 2.101035 4.787578 -1.089680 1.287946 20.955114 0.115370 -1.716527 4.338326 -0.249800 0.000000 -78.653499 7.659920 -1.123496 3.821131 11.033789 6.012438 -33.082462 3.014280 0.372523 6.798620 -0.348153 -3.616048 7.937931 -1.936701 0.000000 -27.420100
1.480800 16.892215 -0.517927 -116.141059 88.938960 -104.347447 -11.794489 4.150872 0.799762 -3.505402 2.179724 3.706868 -0.837343 1.454987 23.351582 0.182884 -1.733825 6.286699 -0.351000 0.000001 -79.298899 7.503140 -1.254738 3.869116 11.523225 6.384804 -32.731628 3.035917 0.314706 7.461823 -0.401550 -3.795848 7.376532 -1.948799 -0.000000 -25.929200
1.644017 16.921990 -0.493122 -110.104933 88.667817 -98.280031 -11.941759 4.134342 0.797013 -2.979001 2.295032 2.513060 -0.584792 1.609154 25.887109 0.275306 -1.699107 8.317834 -0.459900 -0.000000 -79.020500 7.380216 -1.364465 3.910393 11.981063 6.732420 -32.311565 3.059599 0.273207 8.019818 -0.455576 -3.946227 6.699947 -1.937800 -0.000000 -24.299899
1.802970 16.951682 -0.466314 -105.683157 88.420118 -93.830067 -12.068589 4.096173 0.782850 -2.525663 2.433440 1.219193 -0.338035 1.746737 28.538121 0.393139 -1.567568 10.344407 -0.554900 0.000000 -77.731400 7.283510 -1.455319 3.943875 12.407409 7.044382 -31.813397 3.086341 0.250625 8.440479 -0.507844 -4.068220 5.957941 -1.908200 -0.000000 -22.588599
1.957788 16.980894 -0.438208 -102.529356 88.186315 -90.651991 -12.181824 4.032842 0.758065 -2.128132 2.588374 -0.165586 -0.103174 1.866510 31.284431 0.533337 -1.295944 12.262450 -0.606600 0.000000 -75.426900 7.203135 -1.531986 3.970421 12.815012 7.316829 -31.230738 3.118774 0.249354 8.694348 -0.557040 -4.170012 5.201637 -1.867700 0.000000 -20.853800
2.108696 17.009357 -0.409103 -100.539315 87.971274 -88.642435 -12.282013 3.944872 0.725661 -1.791924 2.741458 -1.626359 0.113579 1.970228 34.098129 0.691361 -0.825998 13.971504 -0.576800 -0.000000 -72.202500 7.136798 -1.596588 3.987685 13.203319 7.529145 -30.573873 3.157149 0.268214 8.781219 -0.599648 -4.242013 4.468342 -1.817700 0.000000 -19.173200
2.255944 17.036891 -0.379140 -99.598379 87.783949 -87.689918 -12.367689 3.835135 0.687487 -1.527580 2.875805 -3.142587 0.308442 2.062140 36.947292 0.861948 -0.105191 15.386239 -0.427900 0.000000 -68.261301 7.085550 -1.650300 3.990804 13.567026 7.656480 -29.855732 3.200345 0.303868 8.716727 -0.631673 -4.269591 3.786728 -1.758300 0.000000 -17.650800
2.399920 17.063344 -0.348900 -99.592257 87.617413 -87.679387 -12.444888 3.705480 0.645327 -1.320229 2.988906 -4.706219 0.482027 2.146780 39.805185 1.040185 0.887852 16.444523 -0.139800 0.000000 -63.920100 7.042420 -1.697841 3.981542 13.915242 7.700472 -29.086530 3.248758 0.354824 8.507985 -0.653147 -4.261469 3.182406 -1.695900 0.000001 -16.334700
2.540995 17.088707 -0.318633 -100.371216 87.472305 -88.460917 -12.515012 3.559438 0.601480 -1.169517 3.072460 -6.303076 0.636489 2.228471 42.638645 1.223458 2.160863 17.116146 0.292100 0.000001 -59.539500 7.005991 -1.741191 3.959552 14.246357 7.659203 -28.281471 3.300786 0.417642 8.178776 -0.663680 -4.218514 2.665985 -1.633100 0.000000 -15.267100
2.679494 17.112979 -0.288396 -101.734325 87.350006 -89.833901 -12.577625 3.400876 0.557115 -1.078533 3.121202 -7.916209 0.774619 2.310603 45.413858 1.410469 3.695289 17.393462 0.851200 0.000000 -55.405900 6.977160 -1.780902 3.923746 14.554954 7.534454 -27.454392 3.354060 0.488146 7.759421 -0.663302 -4.140496 2.237897 -1.570800 -0.000000 -14.477800
2.815724 17.136230 -0.258329 -103.464263 87.247808 -91.578761 -12.633256 3.233020 0.514009 -1.043898 3.134331 -9.534726 0.899526 2.394777 48.100564 1.600631 5.445175 17.289028 1.500500 -0.000000 -51.741200 6.955133 -1.817881 3.876864 14.838472 7.341702 -26.618315 3.406653 0.563309 7.276082 -0.653885 -4.034993 1.890294 -1.510501 0.000000 -13.950800
2.950019 17.158572 -0.228421 -105.332342 87.164897 -93.463901 -12.680616 3.059138 0.473164 -1.063617 3.114577 -11.148385 1.013420 2.481276 50.670156 1.792927 7.344083 16.828333 2.189100 -0.000000 -48.649900 6.940752 -1.852181 3.822089 15.092754 7.099627 -25.783915 3.456455 0.640263 6.754683 -0.637575 -3.908604 1.608569 -1.452600 -0.000000 -13.650199
3.082650 17.180049 -0.198598 -107.120388 87.100858 -95.267389 -12.717545 2.881965 0.434793 -1.134505 3.067868 -12.750037 1.117608 2.569236 53.096876 1.985051 9.310158 16.045707 2.858500 0.000000 -46.113300 6.935266 -1.883445 3.763444 15.314272 6.830229 -24.959790 3.501777 0.716955 6.215643 -0.616652 -3.767562 1.374409 -1.396700 -0.000000 -13.521700
3.213869 17.200756 -0.168787 -108.640614 87.056758 -96.798482 -12.741244 2.703994 0.398954 -1.253154 3.000907 -14.332575 1.212654 2.656727 55.356195 2.173557 11.256391 14.990028 3.452900 -0.000000 -44.086500 6.940449 -1.911192 3.704862 15.499917 6.554312 -24.149469 3.541299 0.792089 5.672727 -0.593048 -3.616191 1.169278 -1.341900 -0.000000 -13.502600
3.343800 17.220746 -0.138841 -109.731726 87.034170 -97.895395 -12.748523 2.527210 0.364504 -1.415977 2.921239 -15.886588 1.298368 2.741284 57.424917 2.353721 13.098094 13.721493 3.926900 0.000000 -42.494600 6.958558 -1.934560 3.648326 15.647767 6.287496 -23.350377 3.574314 0.865000 5.132148 -0.567692 -3.454294 0.976947 -1.286500 -0.000000 -13.528100
3.472736 17.240039 -0.108718 -110.283175 87.031801 -98.440439 -12.737766 2.352993 0.333573 -1.614606 2.834428 -17.417294 1.374251 2.819591 59.288058 2.519547 14.756523 12.305035 4.249900 -0.000000 -41.242600 6.989731 -1.954062 3.600790 15.759818 6.051139 -22.565957 3.600858 0.936927 4.589274 -0.542343 -3.288888 0.788058 -1.231400 0.000000 -13.542800
3.600694 17.258626 -0.078336 -110.184327 87.050274 -98.326714 -12.706239 2.183096 0.304605 -1.845115 2.745578 -18.912832 1.439079 2.889334 60.928821 2.664942 16.171619 10.809892 4.412299 -0.000000 -40.237000 7.036497 -1.968589 3.560707 15.836778 5.847278 -21.783513 3.621215 1.008382 4.036784 -0.516021 -3.113259 0.596869 -1.174600 -0.000000 -13.503400
3.727768 17.276444 -0.047709 -109.348069 87.086103 -97.466460 -12.652601 2.019028 0.278681 -2.100326 2.657720 -20.373440 1.491606 2.948350 62.338526 2.784045 17.299873 9.299556 4.421900 -0.000000 -39.379100 7.099846 -1.977847 3.529839 15.882452 5.679962 -20.998346 3.636188 1.080984 3.461897 -0.488270 -2.926314 0.405259 -1.116400 -0.000000 -13.385700
3.854077 17.293422 -0.016892 -107.667684 87.133747 -95.754041 -12.575590 1.861900 0.254846 -2.372964 2.572089 -21.792334 1.530608 2.995319 63.506980 2.873291 18.124748 7.845838 4.307100 0.000000 -38.712400 7.181103 -1.980578 3.504861 15.902968 5.543899 -20.199886 3.646911 1.155914 2.851887 -0.457501 -2.722112 0.219420 -1.056400 0.000000 -13.180000
3.979626 17.309428 0.014020 -105.053547 87.186454 -93.102468 -12.475077 1.714947 0.235956 -2.658034 2.488607 -23.170836 1.554812 3.030124 64.434214 2.929838 18.643913 6.484184 4.097100 -0.000000 -38.080200 7.281074 -1.976362 3.486039 15.902308 5.431832 -19.385675 3.654398 1.234443 2.198397 -0.422355 -2.496838 0.047859 -0.994800 0.000000 -12.902200
4.104497 17.324352 0.044866 -101.374589 87.234325 -89.383060 -12.351209 1.580635 0.221378 -2.949320 2.407112 -24.502968 1.563068 3.053884 65.116567 2.954236 18.879874 5.252201 3.829200 -0.000001 -37.503800 7.400159 -1.963311 3.467919 15.887311 5.331062 -18.549653 3.659936 1.317006 1.497463 -0.380941 -2.244035 -0.099008 -0.931700 0.000000 -12.575500
